<svg width="250px" 
height="110px"
xmlns="http://www.w3.org/2000/svg" 
xmlns:xlink="http://www.w3.org/1999/xlink"
version="1.1" 
viewBox="0 0 200 100" >
    <path fill="#00acc1" d="M5.6210526315789,63.157894736842q-1.2631578947368,0-2.178947368421-0.91578947368421t-0.91578947368421-2.2421052631579l0-13.389473684211q0-1.3263157894737,0.91578947368421-2.2421052631579t2.2421052631579-0.91578947368421l20.526315789474,0l0-3.978947368421l-15.536842105263,0l0,1.9578947368421l-8.1473684210526,0l0-6.6947368421053q0-1.3263157894737,0.91578947368421-2.2421052631579t2.2421052631579-0.91578947368421l25.515789473684,0q1.3263157894737,0,2.2421052631579,0.91578947368421t0.91578947368421,2.2421052631579l0,28.421052631579l-8.1473684210526,0l0-3.1578947368421q0,1.3263157894737-0.91578947368421,2.2421052631579t-2.2421052631579,0.91578947368421l-17.431578947368,0z M26.210526315789,55.263157894737l0-3.9157894736842l-15.536842105263,0l0,3.9157894736842l15.536842105263,0z M71.115789473684,63.157894736842l-8.1473684210526,0l0-23.684210526316l-9.7263157894737,0q-1.2631578947368,0-2.2105263157895,0.91578947368421t-0.94736842105263,2.2421052631579l0,20.526315789474l-8.1473684210526,0l0-31.578947368421l8.1473684210526,0l0,3.1578947368421q0-1.3263157894737,0.94736842105263-2.2421052631579t2.2105263157895-0.91578947368421l14.147368421053,0q1.3263157894737,0,2.2421052631579,0.94736842105263t0.91578947368421,2.2105263157895q0-1.3263157894737,0.94736842105263-2.2421052631579t2.2736842105263-0.91578947368421l15.221052631579,0q1.2631578947368,0,2.2105263157895,0.91578947368421t0.94736842105263,2.2421052631579l0,28.421052631579l-8.1473684210526,0l0-23.684210526316l-9.7263157894737,0q-1.3263157894737,0-2.2421052631579,0.91578947368421t-0.91578947368421,2.2421052631579l0,20.526315789474z M107.87368421053,55.263157894737l15.536842105263,0l0-15.78947368421l-12.378947368421,0q-1.2631578947368,0-2.2105263157895,0.94736842105263t-0.94736842105263,2.2105263157895l0,12.631578947368z M107.87368421053,63.157894736842l-8.1473684210526,0l0-43.38947368421l8.1473684210526,0l0,15.031578947368q0-1.3263157894737,0.94736842105263-2.2736842105263t2.2105263157895-0.94736842105263l17.368421052632,0q1.3263157894737,0,2.2421052631579,0.94736842105263t0.91578947368421,2.2105263157895l0,25.263157894737q0,1.3263157894737-0.91578947368421,2.2421052631579t-2.2421052631579,0.91578947368421l-17.368421052632,0q-1.2631578947368,0-2.2105263157895-0.91578947368421t-0.94736842105263-2.2421052631579l0,3.1578947368421z M142.23157894737,63.157894736842q-1.2631578947368,0-2.178947368421-0.91578947368421t-0.91578947368421-2.2421052631579l0-13.389473684211q0-1.3263157894737,0.91578947368421-2.2421052631579t2.2421052631579-0.91578947368421l20.526315789474,0l0-3.978947368421l-15.536842105263,0l0,1.9578947368421l-8.1473684210526,0l0-6.6947368421053q0-1.3263157894737,0.91578947368421-2.2421052631579t2.2421052631579-0.91578947368421l25.515789473684,0q1.3263157894737,0,2.2421052631579,0.91578947368421t0.91578947368421,2.2421052631579l0,28.421052631579l-8.1473684210526,0l0-3.1578947368421q0,1.3263157894737-0.91578947368421,2.2421052631579t-2.2421052631579,0.91578947368421l-17.431578947368,0z M162.82105263158,55.263157894737l0-3.9157894736842l-15.536842105263,0l0,3.9157894736842l15.536842105263,0z M186.6947368421,63.157894736842l-8.1473684210526,0l0-31.578947368421l8.1473684210526,0l0,3.1578947368421q0-1.3263157894737,0.94736842105263-2.2421052631579t2.2105263157895-0.91578947368421l9.2210526315789,0q1.3263157894737,0,2.2421052631579,0.91578947368421t0.91578947368421,2.2421052631579l0,6.6947368421053l-8.1473684210526,0l0-1.9578947368421l-4.2947368421053,0q-1.2631578947368,0-2.178947368421,0.91578947368421t-0.91578947368421,2.2421052631579l0,20.526315789474z">
    </path>
</svg>