<svg width="275" height="90" xmlns="http://www.w3.org/2000/svg" xmlns:svg="http://www.w3.org/2000/svg">
 <g>
  <g stroke="null" id="svg_8">
   <path stroke="null" fill="#00acc1" d="m78.05505,62.58524q-1.26316,0 -2.17894,-0.91578t-0.91579,-2.24211l0,-13.38947q0,-1.32632 0.91579,-2.24211t2.2421,-0.91579l20.52632,0l0,-3.97895l-15.53685,0l0,1.9579l-8.14736,0l0,-6.69474q0,-1.32631 0.91579,-2.2421t2.2421,-0.91579l25.51579,0q1.32632,0 2.24211,0.91579t0.91578,2.2421l0,28.42105l-8.14736,0l0,-3.15789q0,1.32632 -0.91579,2.24211t-2.24211,0.91578l-17.43158,0zm20.58948,-7.89473l0,-3.91579l-15.53685,0l0,3.91579l15.53685,0zm44.90526,7.89473l-8.14737,0l0,-23.68421l-9.72631,0q-1.26316,0 -2.21053,0.91579t-0.94737,2.24211l0,20.52631l-8.14737,0l0,-31.57894l8.14737,0l0,3.15789q0,-1.32631 0.94737,-2.2421t2.21053,-0.91579l14.14736,0q1.32632,0 2.24211,0.94737t0.91579,2.21052q0,-1.32631 0.94737,-2.2421t2.27368,-0.91579l15.22105,0q1.26316,0 2.21053,0.91579t0.94737,2.2421l0,28.42105l-8.14737,0l0,-23.68421l-9.72632,0q-1.32631,0 -2.2421,0.91579t-0.91579,2.24211l0,20.52631zm36.75789,-7.89473l15.53685,0l0,-15.78948l-12.37895,0q-1.26316,0 -2.21053,0.94737t-0.94737,2.21053l0,12.63158zm0,7.89473l-8.14736,0l0,-43.38947l8.14736,0l0,15.03158q0,-1.32632 0.94737,-2.27368t2.21053,-0.94737l17.36842,0q1.32632,0 2.24211,0.94737t0.91578,2.21052l0,25.26316q0,1.32632 -0.91578,2.24211t-2.24211,0.91578l-17.36842,0q-1.26316,0 -2.21053,-0.91578t-0.94737,-2.24211l0,3.15789zm34.3579,0q-1.26316,0 -2.17895,-0.91578t-0.91579,-2.24211l0,-13.38947q0,-1.32632 0.91579,-2.24211t2.24211,-0.91579l20.52631,0l0,-3.97895l-15.53684,0l0,1.9579l-8.14737,0l0,-6.69474q0,-1.32631 0.91579,-2.2421t2.24211,-0.91579l25.51579,0q1.32631,0 2.2421,0.91579t0.91579,2.2421l0,28.42105l-8.14737,0l0,-3.15789q0,1.32632 -0.91579,2.24211t-2.2421,0.91578l-17.43158,0zm20.58947,-7.89473l0,-3.91579l-15.53684,0l0,3.91579l15.53684,0zm23.87369,7.89473l-8.14737,0l0,-31.57894l8.14737,0l0,3.15789q0,-1.32631 0.94737,-2.2421t2.21052,-0.91579l9.22105,0q1.32632,0 2.24211,0.91579t0.91579,2.2421l0,6.69474l-8.14737,0l0,-1.9579l-4.29474,0q-1.26315,0 -2.17894,0.91579t-0.91579,2.24211l0,20.52631z" id="svg_1" stroke-width="14"/>
   <g stroke="null" id="svg_6">
    <path stroke="null" id="svg_2" d="m30.332,35.697l20.379,54.084l0,-51.097l-20.379,-2.987l0,0z" fill="#00acc1" stroke-width="14"/>
    <path stroke="null" id="svg_3" d="m25.993,38.37l13.561,35.045l-20.875,-14.008l-4.87,-19.332l12.184,-1.705m1.265,-2.153l-15.879,2.223l5.585,22.172l26.655,17.888l-16.361,-42.283l0,0z" fill="#00acc1" stroke-width="14"/>
    <path stroke="null" id="svg_4" d="m50.724,0l-20.289,5.869l-20.29,-5.869l-10.145,17.571l10.145,17.57l20.289,-2.608l20.29,2.608l10.144,-17.57l-10.144,-17.571zm-1.848,26.283l-9.973,-0.896l-2.24,-3.521l1.114,-1.725l2.199,3.472l7.882,0.708l3.897,-6.75l-3.866,-6.696l-7.899,1.456l-9.556,17.959l-9.557,-17.96l-7.899,-1.455l-3.865,6.696l3.896,6.75l7.883,-0.708l2.215,-3.458l1.111,1.712l-2.255,3.521l-9.973,0.896l-5.028,-8.712l5.06,-8.766l9.938,1.831l8.474,15.795l8.474,-15.796l9.938,-1.831l5.062,8.766l-5.032,8.712zm-8.936,-8.223l1.88,-3.041l4.066,-0.393l1.984,3.434l-1.984,3.434l-3.965,-0.279l-1.981,-3.155zm-19.01,0l-1.984,3.154l-3.964,0.279l-1.982,-3.434l1.982,-3.434l3.863,0.393l2.085,3.042z" fill="#00acc1" stroke-width="14"/>
   </g>
  </g>
 </g>
</svg>