<svg width="50px" 
height="50px" 
xmlns="http://www.w3.org/2000/svg" 
xmlns:xlink="http://www.w3.org/1999/xlink" 
version="1.1"
viewBox="0 0 100 100" 
enable-background="new 0 0 100 100" >
    <path fill="#00acc1" d="M49.898,40.806l20.379,54.084V43.793L49.898,40.806L49.898,40.806z">
    </path>
    <path fill="#00acc1" d="M45.559,43.479L59.12,78.524L38.245,64.516l-4.87-19.332L45.559,43.479 M46.824,41.326l-15.879,2.223l5.585,22.172  l26.655,17.888L46.824,41.326L46.824,41.326z">
    </path>
    <path fill="#00acc1" d="M70.29,5.109l-20.289,5.869l-20.29-5.869L19.566,22.68L29.711,40.25L50,37.642l20.29,2.608L80.434,22.68L70.29,5.109z   M68.442,31.392l-9.973-0.896l-2.24-3.521l1.114-1.725l2.199,3.472l7.882,0.708l3.897-6.75l-3.866-6.696l-7.899,1.456L50,35.399  l-9.557-17.96l-7.899-1.455l-3.865,6.696l3.896,6.75l7.883-0.708l2.215-3.458l1.111,1.712l-2.255,3.521l-9.973,0.896l-5.028-8.712  l5.06-8.766l9.938,1.831L50,31.541l8.474-15.796l9.938-1.831l5.062,8.766L68.442,31.392z M59.506,23.169l1.88-3.041l4.066-0.393  l1.984,3.434l-1.984,3.434l-3.965-0.279L59.506,23.169z M40.496,23.169l-1.984,3.154l-3.964,0.279l-1.982-3.434l1.982-3.434  l3.863,0.393L40.496,23.169z">
    </path>
</svg>