<?xml version="1.0" standalone="no"?>
<!DOCTYPE svg PUBLIC "-//W3C//DTD SVG 20010904//EN"
 "http://www.w3.org/TR/2001/REC-SVG-20010904/DTD/svg10.dtd">
<svg version="1.0" xmlns="http://www.w3.org/2000/svg"
 width="16.000000pt" height="16.000000pt" viewBox="0 0 16.000000 16.000000"
 preserveAspectRatio="xMidYMid meet">
<metadata>
Created by potrace 1.11, written by Peter Selinger 2001-2013
</metadata>
<g transform="translate(0.000000,16.000000) scale(0.003239,-0.003239)"
fill="#000000" stroke="none">
<path d="M1182 4220 l-242 -420 241 -417 c133 -230 243 -420 244 -421 2 -2
223 24 492 59 l488 62 483 -62 c266 -34 485 -61 487 -59 2 2 112 191 244 421
l242 418 -242 419 c-133 231 -246 420 -250 420 -4 0 -224 -63 -488 -139 l-480
-139 -478 139 c-263 76 -483 139 -488 139 -6 0 -120 -189 -253 -420z m587 -43
l224 -42 199 -370 c109 -204 203 -370 208 -370 6 0 99 166 208 370 l199 369
229 43 c126 23 234 42 239 43 12 0 245 -400 245 -420 0 -9 -217 -396 -234
-417 0 -1 -109 8 -240 20 l-239 22 -53 84 -54 84 22 39 c12 21 25 38 29 38 4
0 30 -36 58 -80 28 -44 56 -80 63 -80 7 0 85 -7 173 -15 88 -8 167 -15 177
-15 10 0 46 51 102 148 47 82 88 155 91 163 5 12 -149 295 -174 322 -8 8 -329
-46 -366 -62 -14 -6 -98 -153 -245 -430 -123 -231 -226 -421 -230 -421 -3 0
-106 190 -229 423 -124 232 -226 424 -227 426 -7 9 -378 71 -384 64 -4 -4 -47
-76 -95 -160 l-87 -152 92 -160 c68 -120 96 -161 111 -161 40 0 352 31 360 36
4 2 29 38 54 79 26 41 50 75 54 75 12 0 52 -72 47 -83 -3 -7 -27 -46 -54 -87
l-48 -75 -235 -21 c-170 -15 -237 -18 -246 -10 -17 16 -233 393 -233 407 0 25
235 419 250 418 8 0 116 -19 239 -42z m43 -247 c21 0 35 -13 73 -67 26 -37 49
-73 52 -79 6 -15 -73 -141 -96 -153 -9 -5 -54 -10 -100 -12 l-83 -4 -48 81
-48 81 47 82 46 83 65 -6 c36 -3 77 -6 92 -6z m1379 -71 l46 -82 -46 -81 -47
-81 -90 4 c-49 2 -93 5 -97 8 -10 6 -97 140 -97 149 0 3 19 37 41 75 43 72 49
76 129 82 124 9 110 16 161 -74z"/>
<path d="M2400 2925 c0 -4 217 -583 483 -1287 l482 -1281 3 1213 c1 667 1
1214 0 1216 -2 1 -208 32 -458 69 -250 36 -467 68 -482 71 -16 3 -28 3 -28 -1z"/>
<path d="M1871 2853 c-206 -29 -376 -55 -379 -58 -3 -2 55 -242 129 -532 l134
-528 635 -426 c349 -235 636 -426 637 -425 2 2 -761 1978 -774 2006 -7 14 -52
10 -382 -37z m322 -65 c215 -553 637 -1651 634 -1654 -4 -5 -953 630 -979 655
-17 16 -252 930 -239 932 3 0 123 18 266 39 299 43 311 44 318 28z"/>
</g>
</svg>
